ISO-10303-21;
HEADER;
/* Generated by software containing ST-Developer
 * from STEP Tools, Inc. (www.steptools.com) 
 */

FILE_DESCRIPTION(
/* description */ (''),
/* implementation_level */ '2;1');

FILE_NAME(
/* name */ '18650.step',
/* time_stamp */ '2026-04-11T14:07:17-03:00',
/* author */ (''),
/* organization */ (''),
/* preprocessor_version */ 'ST-DEVELOPER v20.1',
/* originating_system */ 'Autodesk Translation Framework v14.24.0.0',
/* authorisation */ '');

FILE_SCHEMA (('AUTOMOTIVE_DESIGN { 1 0 10303 214 3 1 1 }'));
ENDSEC;

DATA;
#10=MECHANICAL_DESIGN_GEOMETRIC_PRESENTATION_REPRESENTATION('',(#18,#19,
#20,#21),#222);
#11=SHAPE_REPRESENTATION_RELATIONSHIP('SRR','None',#229,#12);
#12=ADVANCED_BREP_SHAPE_REPRESENTATION('',(#13),#221);
#13=MANIFOLD_SOLID_BREP('Body1',#114);
#14=FACE_BOUND('',#44,.T.);
#15=PLANE('',#134);
#16=PLANE('',#142);
#17=PLANE('',#146);
#18=STYLED_ITEM('',(#240),#108);
#19=STYLED_ITEM('',(#241),#111);
#20=STYLED_ITEM('',(#241),#113);
#21=STYLED_ITEM('',(#239),#13);
#22=LINE('',#198,#24);
#23=LINE('',#211,#25);
#24=VECTOR('',#159,4.);
#25=VECTOR('',#176,9.);
#26=CYLINDRICAL_SURFACE('',#132,4.);
#27=CYLINDRICAL_SURFACE('',#140,9.);
#28=FACE_OUTER_BOUND('',#36,.T.);
#29=FACE_OUTER_BOUND('',#37,.T.);
#30=FACE_OUTER_BOUND('',#38,.T.);
#31=FACE_OUTER_BOUND('',#39,.T.);
#32=FACE_OUTER_BOUND('',#40,.T.);
#33=FACE_OUTER_BOUND('',#41,.T.);
#34=FACE_OUTER_BOUND('',#42,.T.);
#35=FACE_OUTER_BOUND('',#43,.T.);
#36=EDGE_LOOP('',(#77,#78,#79,#80));
#37=EDGE_LOOP('',(#81,#82,#83,#84));
#38=EDGE_LOOP('',(#85));
#39=EDGE_LOOP('',(#86,#87,#88,#89,#90));
#40=EDGE_LOOP('',(#91,#92,#93,#94,#95));
#41=EDGE_LOOP('',(#96));
#42=EDGE_LOOP('',(#97,#98,#99,#100));
#43=EDGE_LOOP('',(#101));
#44=EDGE_LOOP('',(#102));
#45=CIRCLE('',#129,3.5);
#46=CIRCLE('',#130,0.5);
#47=CIRCLE('',#131,4.);
#48=CIRCLE('',#133,4.);
#49=CIRCLE('',#136,8.5);
#50=CIRCLE('',#137,0.5);
#51=CIRCLE('',#138,9.);
#52=CIRCLE('',#139,9.);
#53=CIRCLE('',#141,9.);
#54=CIRCLE('',#144,8.5);
#55=CIRCLE('',#145,0.5);
#56=VERTEX_POINT('',#191);
#57=VERTEX_POINT('',#193);
#58=VERTEX_POINT('',#197);
#59=VERTEX_POINT('',#202);
#60=VERTEX_POINT('',#204);
#61=VERTEX_POINT('',#206);
#62=VERTEX_POINT('',#210);
#63=VERTEX_POINT('',#215);
#64=EDGE_CURVE('',#56,#56,#45,.T.);
#65=EDGE_CURVE('',#56,#57,#46,.T.);
#66=EDGE_CURVE('',#57,#57,#47,.T.);
#67=EDGE_CURVE('',#57,#58,#22,.T.);
#68=EDGE_CURVE('',#58,#58,#48,.T.);
#69=EDGE_CURVE('',#59,#59,#49,.T.);
#70=EDGE_CURVE('',#59,#60,#50,.T.);
#71=EDGE_CURVE('',#60,#61,#51,.T.);
#72=EDGE_CURVE('',#61,#60,#52,.T.);
#73=EDGE_CURVE('',#61,#62,#23,.T.);
#74=EDGE_CURVE('',#62,#62,#53,.T.);
#75=EDGE_CURVE('',#63,#63,#54,.T.);
#76=EDGE_CURVE('',#63,#62,#55,.T.);
#77=ORIENTED_EDGE('',*,*,#64,.T.);
#78=ORIENTED_EDGE('',*,*,#65,.T.);
#79=ORIENTED_EDGE('',*,*,#66,.T.);
#80=ORIENTED_EDGE('',*,*,#65,.F.);
#81=ORIENTED_EDGE('',*,*,#66,.F.);
#82=ORIENTED_EDGE('',*,*,#67,.T.);
#83=ORIENTED_EDGE('',*,*,#68,.F.);
#84=ORIENTED_EDGE('',*,*,#67,.F.);
#85=ORIENTED_EDGE('',*,*,#64,.F.);
#86=ORIENTED_EDGE('',*,*,#69,.T.);
#87=ORIENTED_EDGE('',*,*,#70,.T.);
#88=ORIENTED_EDGE('',*,*,#71,.T.);
#89=ORIENTED_EDGE('',*,*,#72,.T.);
#90=ORIENTED_EDGE('',*,*,#70,.F.);
#91=ORIENTED_EDGE('',*,*,#72,.F.);
#92=ORIENTED_EDGE('',*,*,#73,.T.);
#93=ORIENTED_EDGE('',*,*,#74,.F.);
#94=ORIENTED_EDGE('',*,*,#73,.F.);
#95=ORIENTED_EDGE('',*,*,#71,.F.);
#96=ORIENTED_EDGE('',*,*,#69,.F.);
#97=ORIENTED_EDGE('',*,*,#75,.T.);
#98=ORIENTED_EDGE('',*,*,#76,.T.);
#99=ORIENTED_EDGE('',*,*,#74,.T.);
#100=ORIENTED_EDGE('',*,*,#76,.F.);
#101=ORIENTED_EDGE('',*,*,#75,.F.);
#102=ORIENTED_EDGE('',*,*,#68,.T.);
#103=TOROIDAL_SURFACE('',#128,3.5,0.5);
#104=TOROIDAL_SURFACE('',#135,8.5,0.5);
#105=TOROIDAL_SURFACE('',#143,8.5,0.5);
#106=ADVANCED_FACE('',(#28),#103,.T.);
#107=ADVANCED_FACE('',(#29),#26,.T.);
#108=ADVANCED_FACE('',(#30),#15,.T.);
#109=ADVANCED_FACE('',(#31),#104,.T.);
#110=ADVANCED_FACE('',(#32),#27,.T.);
#111=ADVANCED_FACE('',(#33),#16,.F.);
#112=ADVANCED_FACE('',(#34),#105,.T.);
#113=ADVANCED_FACE('',(#35,#14),#17,.T.);
#114=CLOSED_SHELL('',(#106,#107,#108,#109,#110,#111,#112,#113));
#115=DERIVED_UNIT_ELEMENT(#117,1.);
#116=DERIVED_UNIT_ELEMENT(#224,-3.);
#117=(
MASS_UNIT()
NAMED_UNIT(*)
SI_UNIT(.KILO.,.GRAM.)
);
#118=DERIVED_UNIT((#115,#116));
#119=MEASURE_REPRESENTATION_ITEM('density measure',
POSITIVE_RATIO_MEASURE(1060.),#118);
#120=PROPERTY_DEFINITION_REPRESENTATION(#125,#122);
#121=PROPERTY_DEFINITION_REPRESENTATION(#126,#123);
#122=REPRESENTATION('material name',(#124),#221);
#123=REPRESENTATION('density',(#119),#221);
#124=DESCRIPTIVE_REPRESENTATION_ITEM('ABS Plastic','ABS Plastic');
#125=PROPERTY_DEFINITION('material property','material name',#231);
#126=PROPERTY_DEFINITION('material property','density of part',#231);
#127=AXIS2_PLACEMENT_3D('',#189,#147,#148);
#128=AXIS2_PLACEMENT_3D('',#190,#149,#150);
#129=AXIS2_PLACEMENT_3D('',#192,#151,#152);
#130=AXIS2_PLACEMENT_3D('',#194,#153,#154);
#131=AXIS2_PLACEMENT_3D('',#195,#155,#156);
#132=AXIS2_PLACEMENT_3D('',#196,#157,#158);
#133=AXIS2_PLACEMENT_3D('',#199,#160,#161);
#134=AXIS2_PLACEMENT_3D('',#200,#162,#163);
#135=AXIS2_PLACEMENT_3D('',#201,#164,#165);
#136=AXIS2_PLACEMENT_3D('',#203,#166,#167);
#137=AXIS2_PLACEMENT_3D('',#205,#168,#169);
#138=AXIS2_PLACEMENT_3D('',#207,#170,#171);
#139=AXIS2_PLACEMENT_3D('',#208,#172,#173);
#140=AXIS2_PLACEMENT_3D('',#209,#174,#175);
#141=AXIS2_PLACEMENT_3D('',#212,#177,#178);
#142=AXIS2_PLACEMENT_3D('',#213,#179,#180);
#143=AXIS2_PLACEMENT_3D('',#214,#181,#182);
#144=AXIS2_PLACEMENT_3D('',#216,#183,#184);
#145=AXIS2_PLACEMENT_3D('',#217,#185,#186);
#146=AXIS2_PLACEMENT_3D('',#218,#187,#188);
#147=DIRECTION('axis',(0.,0.,1.));
#148=DIRECTION('refdir',(1.,0.,0.));
#149=DIRECTION('center_axis',(0.,0.,1.));
#150=DIRECTION('ref_axis',(1.,0.,0.));
#151=DIRECTION('center_axis',(0.,0.,-1.));
#152=DIRECTION('ref_axis',(1.,0.,0.));
#153=DIRECTION('center_axis',(1.22464679914735E-16,-1.,0.));
#154=DIRECTION('ref_axis',(-1.,-1.22464679914735E-16,0.));
#155=DIRECTION('center_axis',(0.,0.,1.));
#156=DIRECTION('ref_axis',(1.,0.,0.));
#157=DIRECTION('center_axis',(0.,0.,1.));
#158=DIRECTION('ref_axis',(1.,0.,0.));
#159=DIRECTION('',(0.,0.,-1.));
#160=DIRECTION('center_axis',(0.,0.,-1.));
#161=DIRECTION('ref_axis',(1.,0.,0.));
#162=DIRECTION('center_axis',(0.,0.,1.));
#163=DIRECTION('ref_axis',(1.,0.,0.));
#164=DIRECTION('center_axis',(0.,0.,-1.));
#165=DIRECTION('ref_axis',(-1.,0.,0.));
#166=DIRECTION('center_axis',(0.,0.,1.));
#167=DIRECTION('ref_axis',(1.,0.,0.));
#168=DIRECTION('center_axis',(-1.22464679914735E-16,-1.,0.));
#169=DIRECTION('ref_axis',(1.,-1.22464679914735E-16,0.));
#170=DIRECTION('center_axis',(0.,0.,-1.));
#171=DIRECTION('ref_axis',(1.,0.,0.));
#172=DIRECTION('center_axis',(0.,0.,-1.));
#173=DIRECTION('ref_axis',(1.,0.,0.));
#174=DIRECTION('center_axis',(0.,0.,-1.));
#175=DIRECTION('ref_axis',(1.,0.,0.));
#176=DIRECTION('',(0.,0.,1.));
#177=DIRECTION('center_axis',(0.,0.,1.));
#178=DIRECTION('ref_axis',(1.,0.,0.));
#179=DIRECTION('center_axis',(0.,0.,1.));
#180=DIRECTION('ref_axis',(1.,0.,0.));
#181=DIRECTION('center_axis',(0.,0.,1.));
#182=DIRECTION('ref_axis',(1.,0.,0.));
#183=DIRECTION('center_axis',(0.,0.,-1.));
#184=DIRECTION('ref_axis',(1.,0.,0.));
#185=DIRECTION('center_axis',(1.22464679914735E-16,-1.,0.));
#186=DIRECTION('ref_axis',(-1.,-1.22464679914735E-16,0.));
#187=DIRECTION('center_axis',(0.,0.,1.));
#188=DIRECTION('ref_axis',(1.,0.,0.));
#189=CARTESIAN_POINT('',(0.,0.,0.));
#190=CARTESIAN_POINT('Origin',(0.,0.,0.5));
#191=CARTESIAN_POINT('',(-3.5,4.28626379701574E-16,1.));
#192=CARTESIAN_POINT('Origin',(0.,0.,1.));
#193=CARTESIAN_POINT('',(-4.,-4.89858719658941E-16,0.5));
#194=CARTESIAN_POINT('Origin',(-3.5,-4.28626379701574E-16,0.5));
#195=CARTESIAN_POINT('Origin',(0.,0.,0.5));
#196=CARTESIAN_POINT('Origin',(0.,0.,0.));
#197=CARTESIAN_POINT('',(-4.,-4.89858719658941E-16,0.));
#198=CARTESIAN_POINT('',(-4.,-4.89858719658941E-16,0.));
#199=CARTESIAN_POINT('Origin',(0.,0.,0.));
#200=CARTESIAN_POINT('Origin',(0.,0.,1.));
#201=CARTESIAN_POINT('Origin',(0.,0.,-64.5));
#202=CARTESIAN_POINT('',(8.5,-1.04094977927525E-15,-65.));
#203=CARTESIAN_POINT('Origin',(0.,0.,-65.));
#204=CARTESIAN_POINT('',(9.,-1.10218211923262E-15,-64.5));
#205=CARTESIAN_POINT('Origin',(8.5,-1.04094977927525E-15,-64.5));
#206=CARTESIAN_POINT('',(-9.,1.10218211923262E-15,-64.5));
#207=CARTESIAN_POINT('Origin',(0.,0.,-64.5));
#208=CARTESIAN_POINT('Origin',(0.,0.,-64.5));
#209=CARTESIAN_POINT('Origin',(0.,0.,0.));
#210=CARTESIAN_POINT('',(-9.,-1.10218211923262E-15,-0.5));
#211=CARTESIAN_POINT('',(-9.,1.10218211923262E-15,0.));
#212=CARTESIAN_POINT('Origin',(0.,0.,-0.5));
#213=CARTESIAN_POINT('Origin',(0.,0.,-65.));
#214=CARTESIAN_POINT('Origin',(0.,0.,-0.5));
#215=CARTESIAN_POINT('',(-8.5,1.04094977927525E-15,0.));
#216=CARTESIAN_POINT('Origin',(0.,0.,0.));
#217=CARTESIAN_POINT('Origin',(-8.5,-1.04094977927525E-15,-0.5));
#218=CARTESIAN_POINT('Origin',(0.,0.,0.));
#219=UNCERTAINTY_MEASURE_WITH_UNIT(LENGTH_MEASURE(0.01),#223,
'DISTANCE_ACCURACY_VALUE',
'Maximum model space distance between geometric entities at asserted c
onnectivities');
#220=UNCERTAINTY_MEASURE_WITH_UNIT(LENGTH_MEASURE(0.01),#223,
'DISTANCE_ACCURACY_VALUE',
'Maximum model space distance between geometric entities at asserted c
onnectivities');
#221=(
GEOMETRIC_REPRESENTATION_CONTEXT(3)
GLOBAL_UNCERTAINTY_ASSIGNED_CONTEXT((#219))
GLOBAL_UNIT_ASSIGNED_CONTEXT((#223,#225,#226))
REPRESENTATION_CONTEXT('','3D')
);
#222=(
GEOMETRIC_REPRESENTATION_CONTEXT(3)
GLOBAL_UNCERTAINTY_ASSIGNED_CONTEXT((#220))
GLOBAL_UNIT_ASSIGNED_CONTEXT((#223,#225,#226))
REPRESENTATION_CONTEXT('','3D')
);
#223=(
LENGTH_UNIT()
NAMED_UNIT(*)
SI_UNIT(.MILLI.,.METRE.)
);
#224=(
LENGTH_UNIT()
NAMED_UNIT(*)
SI_UNIT($,.METRE.)
);
#225=(
NAMED_UNIT(*)
PLANE_ANGLE_UNIT()
SI_UNIT($,.RADIAN.)
);
#226=(
NAMED_UNIT(*)
SI_UNIT($,.STERADIAN.)
SOLID_ANGLE_UNIT()
);
#227=SHAPE_DEFINITION_REPRESENTATION(#228,#229);
#228=PRODUCT_DEFINITION_SHAPE('',$,#231);
#229=SHAPE_REPRESENTATION('',(#127),#221);
#230=PRODUCT_DEFINITION_CONTEXT('part definition',#235,'design');
#231=PRODUCT_DEFINITION('(Unsaved)','(Unsaved)',#232,#230);
#232=PRODUCT_DEFINITION_FORMATION('',$,#237);
#233=PRODUCT_RELATED_PRODUCT_CATEGORY('(Unsaved)','(Unsaved)',(#237));
#234=APPLICATION_PROTOCOL_DEFINITION('international standard',
'automotive_design',2009,#235);
#235=APPLICATION_CONTEXT(
'Core Data for Automotive Mechanical Design Process');
#236=PRODUCT_CONTEXT('part definition',#235,'mechanical');
#237=PRODUCT('(Unsaved)','(Unsaved)',$,(#236));
#238=PRESENTATION_STYLE_ASSIGNMENT((#242));
#239=PRESENTATION_STYLE_ASSIGNMENT((#243));
#240=PRESENTATION_STYLE_ASSIGNMENT((#244));
#241=PRESENTATION_STYLE_ASSIGNMENT((#245));
#242=SURFACE_STYLE_USAGE(.BOTH.,#246);
#243=SURFACE_STYLE_USAGE(.BOTH.,#247);
#244=SURFACE_STYLE_USAGE(.BOTH.,#248);
#245=SURFACE_STYLE_USAGE(.BOTH.,#249);
#246=SURFACE_SIDE_STYLE('',(#250));
#247=SURFACE_SIDE_STYLE('',(#251));
#248=SURFACE_SIDE_STYLE('',(#252));
#249=SURFACE_SIDE_STYLE('',(#253));
#250=SURFACE_STYLE_FILL_AREA(#254);
#251=SURFACE_STYLE_FILL_AREA(#255);
#252=SURFACE_STYLE_FILL_AREA(#256);
#253=SURFACE_STYLE_FILL_AREA(#257);
#254=FILL_AREA_STYLE('Paek (Beige)',(#258));
#255=FILL_AREA_STYLE('Aluminum - Anodized Rough (Blue)',(#259));
#256=FILL_AREA_STYLE('Aluminum - Anodized Glossy (Red)',(#260));
#257=FILL_AREA_STYLE('Aluminum - Bead Blasted',(#261));
#258=FILL_AREA_STYLE_COLOUR('Paek (Beige)',#262);
#259=FILL_AREA_STYLE_COLOUR('Aluminum - Anodized Rough (Blue)',#263);
#260=FILL_AREA_STYLE_COLOUR('Aluminum - Anodized Glossy (Red)',#264);
#261=FILL_AREA_STYLE_COLOUR('Aluminum - Bead Blasted',#265);
#262=COLOUR_RGB('Paek (Beige)',0.898039215686275,0.792156862745098,0.619607843137255);
#263=COLOUR_RGB('Aluminum - Anodized Rough (Blue)',0.349019607843137,0.584313725490196,
0.854901960784314);
#264=COLOUR_RGB('Aluminum - Anodized Glossy (Red)',0.854901960784314,0.349019607843137,
0.349019607843137);
#265=COLOUR_RGB('Aluminum - Bead Blasted',0.96078431372549,0.96078431372549,
0.964705882352941);
ENDSEC;
END-ISO-10303-21;
